<?xml version="1.0" standalone="no"?>
<svg version="1.0" xmlns="http://www.w3.org/2000/svg"
 width="230.000000pt" height="205.000000pt" viewBox="0 0 230.000000 205.000000"
 preserveAspectRatio="xMidYMid meet"
 >

<g transform="translate(0.000000,100.000000) scale(0.100000,-0.100000)">
<!-- Outer triangle -->
<path d="m1214 728 c35 -60 63 -109 61 -111 -2 -2 -30 10 -63 27 -33 16 -62 27
-66 24 -3 -4 -6 -35 -6 -70 0 -76 -7 -68 160 -165 l124 -73 64 -108 c35 -59
62 -112 60 -117 -2 -5 -92 42 -200 104 -108 63 -199 112 -202 108 -3 -3 -6
-34 -6 -68 0 -77 -16 -64 295 -244 127 -73 240 -140 253 -149 24 -17 153 -234
142 -239 -4 -1 -156 83 -338 188 -182 104 -336 190 -341 190 -12 0 -14 -55 -5
-112 6 -37 9 -39 298 -204 160 -92 347 -200 416 -241 l126 -74 59 -107 c33
-59 61 -113 63 -119 3 -10 -28 -13 -130 -13 l-133 0 55 35 c30 19 60 36 65 38
13 5 11 7 -53 45 -29 18 -60 32 -69 32 -9 0 -75 -34 -146 -75 l-129 -75 -126
-3 c-75 -1 -129 2 -131 8 -2 5 82 59 188 120 105 60 191 113 191 116 0 8 -114
69 -130 69 -6 0 -128 -68 -271 -151 -142 -83 -276 -155 -296 -160 -48 -11
-253 -12 -253 -1 0 5 145 93 323 197 177 103 328 193 335 198 10 8 0 18 -40
43 -29 19 -61 34 -71 34 -10 0 -82 -38 -160 -84 -78 -46 -261 -152 -407 -237
l-265 -154 -142 -3 c-89 -2 -143 0 -143 6 0 9 81 154 119 212 16 24 16 23 21
-51 l5 -76 60 36 60 36 5 165 5 165 46 80 c77 134 84 145 92 145 4 0 7 -103 7
-230 0 -126 3 -230 8 -230 4 0 32 15 62 33 l55 33 5 330 c3 181 8 334 11 339
3 6 32 55 64 109 48 82 60 96 66 80 4 -10 8 -187 8 -391 1 -205 4 -373 7 -373
4 0 33 16 66 36 l59 36 -1 476 c-1 263 2 486 6 497 13 35 127 225 135 225 4 0
37 -48 73 -107z"/>
</g>
</svg>
